# xmcd
#
# Track frame offsets:
#	150
#	11422
#	23184
#	36478
#	50173
#	61090
#	74762
#	89588
#	103835
#	115483
#	128062
#	141042
#	151782
#	161994
#	177813
#	193028
#	204186
#	218757
#	231656
#	243790
#	258002
#	271789
#	281477
#	295128
#
# Disc length: 4088 seconds
#
# Revision: 1
# Processed by: cddbd v1.5.2PL0 Copyright (c) Steve Scherf et al.
# Submitted via: audiograbber 1.83.01
#
DISCID=630ff618
DTITLE=Vern Gosdin - The Voice
DYEAR=1998
DGENRE=Country
TTITLE0=Don't Ever Leave Me Alone Again
TTITLE1=Your Bedroom Eyes
TTITLE2=Friday Night Feeling
TTITLE3=When Love Was All We Had To Share
TTITLE4=Loving You Is Music To My Mind
TTITLE5=It's Not Over (If I'm Not Over You)
TTITLE6=Weekends Were Made For Cheatin'
TTITLE7=Rough Around The Edges
TTITLE8=Cowboys Are Common As Sin
TTITLE9=It's Beginning To Look Like The End
TTITLE10=Lady
TTITLE11=My Baby Sings The Blues
TTITLE12=Too Long Gone
TTITLE13=Love Is Like An Echo
TTITLE14=Damn The Fever
TTITLE15=It Might Have Been
TTITLE16=Rustin' Down
TTITLE17=Too Far Gone
TTITLE18=Singer Of Sad Songs
TTITLE19=When Love Takes Over Your Life
TTITLE20=Tonight I'm Feeling You All Over Again
TTITLE21=Just Give Me What You Think Is Fair
TTITLE22=Ain't It Been Love
TTITLE23=She's Just A Place To Fall
EXTD=
EXTT0=
EXTT1=
EXTT2=
EXTT3=
EXTT4=
EXTT5=
EXTT6=
EXTT7=
EXTT8=
EXTT9=
EXTT10=
EXTT11=
EXTT12=
EXTT13=
EXTT14=
EXTT15=
EXTT16=
EXTT17=
EXTT18=
EXTT19=
EXTT20=
EXTT21=
EXTT22=
EXTT23=
PLAYORDER=
